<?xml version="1.0" encoding="UTF-8" standalone="no"?>
<!-- Created with Inkscape (http://www.inkscape.org/) -->

<svg
   xmlns:dc="http://purl.org/dc/elements/1.1/"
   xmlns:cc="http://creativecommons.org/ns#"
   xmlns:rdf="http://www.w3.org/1999/02/22-rdf-syntax-ns#"
   xmlns:svg="http://www.w3.org/2000/svg"
   xmlns="http://www.w3.org/2000/svg"
   xmlns:sodipodi="http://sodipodi.sourceforge.net/DTD/sodipodi-0.dtd"
   xmlns:inkscape="http://www.inkscape.org/namespaces/inkscape"
   width="404.92999"
   height="343.84048"
   viewBox="0 0 107.13773 90.974465"
   version="1.1"
   id="svg8"
   inkscape:version="0.92.3 (2405546, 2018-03-11)"
   sodipodi:docname="documents.svg">
  <defs
     id="defs2" />
  <sodipodi:namedview
     id="base"
     pagecolor="#ffffff"
     bordercolor="#666666"
     borderopacity="1.0"
     inkscape:pageopacity="0.0"
     inkscape:pageshadow="2"
     inkscape:zoom="0.7"
     inkscape:cx="145.02897"
     inkscape:cy="59.558438"
     inkscape:document-units="px"
     inkscape:current-layer="layer1"
     showgrid="false"
     units="px"
     showborder="false"
     inkscape:window-width="1920"
     inkscape:window-height="1017"
     inkscape:window-x="-8"
     inkscape:window-y="-8"
     inkscape:window-maximized="1"
     fit-margin-top="0"
     fit-margin-left="0"
     fit-margin-right="0"
     fit-margin-bottom="0" />
  <metadata
     id="metadata5">
    <rdf:RDF>
      <cc:Work
         rdf:about="">
        <dc:format>image/svg+xml</dc:format>
        <dc:type
           rdf:resource="http://purl.org/dc/dcmitype/StillImage" />
        <dc:title></dc:title>
      </cc:Work>
    </rdf:RDF>
  </metadata>
  <g
     inkscape:label="Layer 1"
     inkscape:groupmode="layer"
     id="layer1"
     transform="translate(487.5222,-173.41826)">
    <g
       id="g1090">
      <g
         transform="matrix(0.26458333,0,0,0.26458333,-499.47872,156.08818)"
         id="freepik--filing-cabinets--inject-2">
        <polygon
           id="polygon815"
           style="fill:#d9d4f3"
           points="73.62,313.32 45.19,296.91 45.19,235.93 73.62,252.35 " />
        <polygon
           id="polygon817"
           style="fill:#e3e3fa"
           points="73.62,252.35 114.24,228.9 114.24,289.87 73.62,313.32 " />
        <polygon
           id="polygon819"
           style="fill:#f5f5fd"
           points="114.24,228.9 73.62,252.35 45.19,235.93 85.81,212.48 " />
        <polygon
           id="polygon821"
           style="fill:#d9d4f3"
           points="78.43,277.71 77.68,277.28 77.69,254.69 110.18,235.93 110.93,236.36 110.93,258.95 " />
        <polygon
           id="polygon823"
           style="fill:#f5f5fd"
           points="78.43,255.13 110.93,236.36 110.93,258.95 78.43,277.71 " />
        <path
           id="path825"
           style="fill:#d9d4f3"
           d="m 91.17,251.6 5.53,-3.19 c 0.71,-0.42 1.29,-0.23 1.29,0.42 a 2.59,2.59 0 0 1 -1.29,1.92 l -5.53,3.19 c -0.72,0.42 -1.3,0.23 -1.3,-0.42 a 2.58,2.58 0 0 1 1.3,-1.92 z"
           inkscape:connector-curvature="0" />
        <polygon
           id="polygon827"
           style="fill:#d9d4f3"
           points="77.68,306.29 76.94,305.86 76.94,283.27 109.43,264.51 109.43,287.1 110.18,287.53 " />
        <polygon
           id="polygon829"
           style="fill:#f5f5fd"
           points="77.68,283.7 110.18,264.94 110.18,287.53 77.68,306.29 " />
        <path
           id="path831"
           style="fill:#d9d4f3"
           d="M 90.42,280.18 96,277 c 0.72,-0.42 1.3,-0.23 1.3,0.42 a 2.58,2.58 0 0 1 -1.3,1.92 l -5.53,3.19 c -0.72,0.42 -1.3,0.23 -1.3,-0.42 a 2.58,2.58 0 0 1 1.25,-1.93 z"
           inkscape:connector-curvature="0" />
        <polygon
           id="polygon833"
           style="fill:#d9d4f3"
           points="73.62,248.83 45.19,232.41 45.19,171.44 73.62,187.85 " />
        <polygon
           id="polygon835"
           style="fill:#e3e3fa"
           points="73.62,187.85 114.24,164.4 114.24,225.38 73.62,248.83 " />
        <polygon
           id="polygon837"
           style="fill:#f5f5fd"
           points="114.24,164.4 73.62,187.85 45.19,171.44 85.81,147.99 " />
        <polygon
           id="polygon839"
           style="fill:#d9d4f3"
           points="78.43,213.22 77.68,212.78 77.68,190.2 110.18,171.44 110.93,171.87 110.93,194.46 " />
        <path
           id="path841"
           style="fill:#d9d4f3"
           d="m 91.17,187.1 5.52,-3.19 c 0.72,-0.41 1.3,-0.22 1.3,0.43 a 2.6,2.6 0 0 1 -1.3,1.92 l -5.52,3.19 c -0.72,0.41 -1.3,0.23 -1.3,-0.42 a 2.61,2.61 0 0 1 1.3,-1.93 z"
           inkscape:connector-curvature="0" />
        <polygon
           id="polygon843"
           style="fill:#d9d4f3"
           points="77.68,241.79 76.94,241.36 76.94,218.78 109.43,200.02 109.43,222.6 110.18,223.03 " />
        <polygon
           id="polygon845"
           style="fill:#f5f5fd"
           points="77.68,219.21 110.18,200.45 110.18,223.03 77.68,241.79 " />
        <path
           id="path847"
           style="fill:#d9d4f3"
           d="M 90.42,215.68 96,212.49 c 0.71,-0.41 1.3,-0.22 1.3,0.43 A 2.64,2.64 0 0 1 96,214.84 L 90.42,218 c -0.72,0.41 -1.3,0.22 -1.3,-0.42 a 2.61,2.61 0 0 1 1.3,-1.9 z"
           inkscape:connector-curvature="0" />
        <polygon
           id="polygon849"
           style="fill:#d9d4f3"
           points="77.68,190.2 110.18,171.44 110.18,194.02 77.68,212.78 " />
        <polygon
           id="polygon851"
           style="fill:#d9d4f3"
           points="126.43,182.6 108.64,172.33 108.64,192.23 126.43,202.49 " />
        <polygon
           id="polygon853"
           style="fill:#e3e3fa"
           points="118.3,173.78 118.3,199.58 89.87,216 89.87,187.85 96.84,183.81 97.99,185.51 " />
        <polygon
           id="polygon855"
           style="fill:#f5f5fd"
           points="89.87,216 91.9,191.37 120.33,174.96 118.3,199.58 " />
        <polygon
           id="polygon857"
           style="fill:#e3e3fa"
           points="93.93,201.36 78.43,192.41 78.43,212.31 93.93,221.25 " />
        <polygon
           id="polygon859"
           style="fill:#f5f5fd"
           points="93.93,199.58 126.43,180.82 126.43,203.4 93.93,222.16 " />
        <path
           id="path861"
           style="fill:#d9d4f3"
           d="m 106.67,196.05 5.52,-3.19 c 0.72,-0.41 1.3,-0.22 1.3,0.43 a 2.61,2.61 0 0 1 -1.3,1.92 l -5.52,3.19 c -0.72,0.41 -1.3,0.22 -1.3,-0.42 a 2.61,2.61 0 0 1 1.3,-1.93 z"
           inkscape:connector-curvature="0" />
        <polygon
           id="polygon863"
           style="fill:#d9d4f3"
           points="93.93,199.58 92.85,198.96 92.85,221.54 93.93,222.16 " />
        <polygon
           id="polygon865"
           style="fill:#e3e3fa"
           points="92.85,198.96 125.34,180.19 126.43,180.82 93.93,199.58 " />
        <polygon
           id="polygon867"
           style="fill:#d9d4f3"
           points="409.5,276.38 381.06,259.96 381.06,198.99 409.5,215.4 " />
        <polygon
           id="polygon869"
           style="fill:#e3e3fa"
           points="409.5,215.4 450.12,191.95 450.12,252.93 409.5,276.38 " />
        <polygon
           id="polygon871"
           style="fill:#f5f5fd"
           points="450.12,191.95 409.5,215.4 381.06,198.99 421.69,175.53 " />
        <polygon
           id="polygon873"
           style="fill:#d9d4f3"
           points="414.31,240.76 413.56,240.33 413.56,217.75 446.06,198.99 446.81,199.42 446.8,222 " />
        <polygon
           id="polygon875"
           style="fill:#f5f5fd"
           points="414.31,218.18 446.81,199.42 446.8,222 414.31,240.76 " />
        <path
           id="path877"
           style="fill:#d9d4f3"
           d="m 427.05,214.65 5.52,-3.19 c 0.72,-0.41 1.3,-0.22 1.3,0.42 a 2.61,2.61 0 0 1 -1.3,1.93 l -5.52,3.19 c -0.72,0.41 -1.3,0.22 -1.3,-0.42 a 2.61,2.61 0 0 1 1.3,-1.93 z"
           inkscape:connector-curvature="0" />
        <polygon
           id="polygon879"
           style="fill:#d9d4f3"
           points="413.56,269.34 412.81,268.91 412.81,246.33 445.31,227.56 445.31,250.15 446.06,250.58 " />
        <polygon
           id="polygon881"
           style="fill:#f5f5fd"
           points="413.56,246.76 446.06,228 446.06,250.58 413.56,269.34 " />
        <path
           id="path883"
           style="fill:#d9d4f3"
           d="m 426.3,243.23 5.53,-3.19 c 0.71,-0.41 1.29,-0.22 1.29,0.42 a 2.63,2.63 0 0 1 -1.29,1.93 l -5.53,3.19 c -0.72,0.41 -1.3,0.22 -1.3,-0.43 a 2.61,2.61 0 0 1 1.3,-1.92 z"
           inkscape:connector-curvature="0" />
      </g>
      <path
         inkscape:connector-curvature="0"
         d="m -462.70164,246.07562 c 0,0 0.0291,-4.1963 -2.61673,-7.34219 -2.34156,-2.78606 -3.58775,-4.55348 -2.84956,-5.3684 0.73819,-0.81491 2.32569,-1.01071 4.46617,1.24354 2.14048,2.25425 2.30716,8.49842 2.01083,9.9113 z"
         style="fill:#d6d5f4;stroke-width:0.26458332"
         id="path886" />
      <path
         inkscape:connector-curvature="0"
         d="m -462.70164,246.07562 c 0,0 0.0291,-4.1963 -2.61673,-7.34219 -2.34156,-2.78606 -3.58775,-4.55348 -2.84956,-5.3684 0.73819,-0.81491 2.32569,-1.01071 4.46617,1.24354 2.14048,2.25425 2.30716,8.49842 2.01083,9.9113 z"
         style="opacity:0.1;stroke-width:0.26458332"
         id="path888" />
      <path
         inkscape:connector-curvature="0"
         d="m -462.25714,241.56447 a 0.13229166,0.13229166 0 0 1 -0.12964,-0.10319 c -0.92604,-4.33123 -3.302,-6.72571 -4.63815,-7.76816 a 0.13229166,0.13229166 0 0 1 -0.0238,-0.18521 0.1349375,0.1349375 0 0 1 0.18785,-0.0238 c 1.36261,1.05833 3.78884,3.50837 4.7334,7.92162 a 0.12964583,0.12964583 0 0 1 -0.10054,0.1561 z"
         style="fill:#ffffff;stroke-width:0.26458332"
         id="path890" />
      <path
         inkscape:connector-curvature="0"
         d="m -462.80218,247.63401 -1.07685,0.62177 a 1.9473333,1.9473333 0 0 0 -1.44992,-1.24089 c -1.1774,-0.26459 -2.39977,-0.21961 -3.22527,-1.2409 -0.8255,-1.02129 0.17992,-2.13254 0,-2.88396 -0.17992,-0.75141 -0.29633,-0.96837 -1.77271,-1.71979 -1.47637,-0.75142 -2.05846,-1.9976 -0.94721,-2.84162 1.11125,-0.84402 2.91042,-0.2249 4.0005,0.52916 0.96838,0.66146 1.88913,0.83609 2.97127,0.97102 1.08215,0.13494 2.84427,0.73555 2.5744,3.24909 a 19.806708,19.806708 0 0 1 -1.07421,4.55612 z"
         style="fill:#5b25f5;fill-opacity:1;stroke-width:0.26458332"
         id="path892" />
      <path
         inkscape:connector-curvature="0"
         d="m -466.93497,244.33201 a 0.1349375,0.1349375 0 0 1 -0.127,-0.0926 0.1349375,0.1349375 0 0 1 0.0873,-0.16669 c 0.0953,-0.0291 2.38125,-0.75406 3.35227,0.0238 a 0.13229166,0.13229166 0 0 1 -0.16404,0.20638 c -0.85725,-0.68792 -3.08504,0.0159 -3.10885,0.0238 z"
         style="fill:#ffffff;stroke-width:0.26458332"
         id="path894" />
      <path
         inkscape:connector-curvature="0"
         d="m -462.68312,247.43293 a 0.12964583,0.12964583 0 0 1 -0.12964,-0.11642 c -0.59002,-5.57212 -7.3025,-8.21531 -7.36865,-8.24177 a 0.13229166,0.13229166 0 0 1 -0.0767,-0.17198 0.1349375,0.1349375 0 0 1 0.16934,-0.0767 c 0.0714,0.0291 6.93208,2.72786 7.53798,8.46667 a 0.13229166,0.13229166 0 0 1 -0.11642,0.14552 z"
         style="fill:#ffffff;stroke-width:0.26458332"
         id="path896" />
      <path
         inkscape:connector-curvature="0"
         d="m -396.8733,243.97482 c 0.0291,-0.0926 1.16416,-5.9346 0,-10.07797 -1.05834,-3.79942 -2.43946,-5.20171 -4.40796,-5.51128 -1.9685,-0.30956 -2.82311,1.10861 -1.778,3.02948 1.0451,1.92088 3.56129,4.46882 4.17777,8.76036 0.26458,1.76741 0.46566,3.302 0.46566,3.302 z"
         style="fill:#d6d5f4;stroke-width:0.26458332"
         id="path898" />
      <path
         inkscape:connector-curvature="0"
         d="m -396.8733,243.97482 c 0.0291,-0.0926 1.16416,-5.9346 0,-10.07797 -1.05834,-3.79942 -2.43946,-5.20171 -4.40796,-5.51128 -1.9685,-0.30956 -2.82311,1.10861 -1.778,3.02948 1.0451,1.92088 3.56129,4.46882 4.17777,8.76036 0.26458,1.76741 0.46566,3.302 0.46566,3.302 z"
         style="opacity:0.1;stroke-width:0.26458332"
         id="path900" />
      <path
         inkscape:connector-curvature="0"
         d="m -397.53741,240.61991 v 0 a 0.13229166,0.13229166 0 0 1 -0.12435,-0.14023 c 0.26458,-4.73075 -1.28059,-8.9535 -4.05077,-11.02519 a 0.13229166,0.13229166 0 0 1 -0.0265,-0.18521 0.1349375,0.1349375 0 0 1 0.18521,-0.0265 c 2.83898,2.11667 4.43177,6.43467 4.15395,11.25273 a 0.13229166,0.13229166 0 0 1 -0.13758,0.12436 z"
         style="fill:#ffffff;stroke-width:0.26458332"
         id="path902" />
      <path
         inkscape:connector-curvature="0"
         d="m -393.82795,247.01753 c -0.15081,-1.08743 0.4736,-2.71727 1.95792,-3.10356 1.48431,-0.38629 2.14577,-1.23825 1.61131,-2.16958 -0.53446,-0.93134 -0.41011,-1.78594 0.93662,-2.17223 1.34673,-0.38629 2.52677,-1.05834 1.75155,-2.48179 -0.56357,-1.02923 -0.68792,-1.69598 0.6932,-3.72269 1.14565,-1.68275 0.20902,-2.66965 -1.22502,-2.48444 -1.43404,0.18521 -2.32039,1.89442 -3.21733,2.18017 -0.89694,0.28575 -1.10331,-1.23825 -2.286,-0.55563 -1.18269,0.68263 -1.11125,2.43152 -1.14829,3.65125 -0.037,1.21973 -0.11642,1.4949 -1.18534,1.34673 -1.06891,-0.14816 -2.11666,0.0265 -2.09285,2.61144 0.0185,2.21721 1.20121,4.96358 1.20121,4.96358 z"
         style="fill:#5b25f5;fill-opacity:1;stroke-width:0.26458332"
         id="path904" />
      <path
         inkscape:connector-curvature="0"
         d="m -395.70385,245.36389 h -0.0132 a 0.1349375,0.1349375 0 0 1 -0.11906,-0.14817 c 0.74613,-6.66485 6.46642,-12.28725 7.95867,-13.4276 a 0.13308962,0.13308962 0 0 1 0.16139,0.21166 c -1.47372,1.12448 -7.11993,6.67279 -7.85547,13.24504 a 0.1349375,0.1349375 0 0 1 -0.1323,0.11907 z"
         style="fill:#ffffff;stroke-width:0.26458332"
         id="path906" />
      <path
         inkscape:connector-curvature="0"
         d="m -393.09505,238.23866 a 0.1349375,0.1349375 0 0 1 -0.12436,-0.0847 0.13758333,0.13758333 0 0 1 0.0794,-0.17198 c 2.13254,-0.79375 4.55083,-0.41804 4.65402,-0.40216 a 0.13229166,0.13229166 0 0 1 0.10848,0.15081 0.13758333,0.13758333 0 0 1 -0.15082,0.11112 c -0.0238,0 -2.45268,-0.381 -4.51908,0.38894 a 0.1508125,0.1508125 0 0 1 -0.0476,0.008 z"
         style="fill:#ffffff;stroke-width:0.26458332"
         id="path908" />
      <path
         inkscape:connector-curvature="0"
         d="m -394.99476,242.24445 a 0.13229166,0.13229166 0 0 1 -0.0979,-0.045 7.7999166,7.7999166 0 0 1 -1.7436,-3.61685 0.13229166,0.13229166 0 0 1 0.11112,-0.15082 0.13229166,0.13229166 0 0 1 0.15081,0.11113 7.6464582,7.6464582 0 0 0 1.68011,3.47927 0.1349375,0.1349375 0 0 1 -0.10054,0.22225 z"
         style="fill:#ffffff;stroke-width:0.26458332"
         id="path910" />
      <polygon
         transform="matrix(0.26458333,0,0,0.26458333,-499.47872,156.08818)"
         points="162.99,205.3 162.99,360.09 321.41,268.62 321.41,127.91 203.61,195.92 199.55,184.19 "
         style="fill:#d6d5f4"
         id="polygon913" />
      <polygon
         transform="matrix(0.26458333,0,0,0.26458333,-499.47872,156.08818)"
         points="162.99,205.3 162.99,360.09 321.41,268.62 321.41,127.91 203.61,195.92 199.55,184.19 "
         style="opacity:0.1"
         id="polygon915" />
      <polygon
         transform="matrix(0.26458333,0,0,0.26458333,-499.47872,156.08818)"
         points="329.53,127.91 321.41,268.62 162.99,360.09 171.11,219.37 "
         style="fill:#ffffff;fill-opacity:1"
         id="polygon917" />
      <polygon
         transform="matrix(0.26458333,0,0,0.26458333,-499.47872,156.08818)"
         points="333.59,130.25 321.41,268.62 162.99,360.09 175.17,221.72 "
         style="fill:#d6d5f4"
         id="polygon919" />
      <polygon
         transform="matrix(0.26458333,0,0,0.26458333,-499.47872,156.08818)"
         points="333.59,130.25 321.41,268.62 162.99,360.09 175.17,221.72 "
         style="opacity:0.1"
         id="polygon921" />
      <path
         inkscape:connector-curvature="0"
         d="m -420.89747,264.39272 c -7.52475,-4.34446 -14.50446,-9.06727 -17.69004,-14.60765 l 9.68375,-5.59064 z"
         style="fill:#d9d4f3;stroke-width:0.26458332"
         id="path924" />
      <polygon
         transform="matrix(0.26458333,0,0,0.26458333,-499.47872,156.08818)"
         points="191.42,221.72 191.42,376.5 349.84,285.04 349.84,144.33 232.04,212.34 227.98,200.61 "
         style="fill:#d6d5f4"
         id="polygon926" />
      <polygon
         transform="matrix(0.26458333,0,0,0.26458333,-499.47872,156.08818)"
         points="191.42,221.72 191.42,376.5 349.84,285.04 349.84,144.33 232.04,212.34 227.98,200.61 "
         style="opacity:0.05"
         id="polygon928" />
      <path
         inkscape:connector-curvature="0"
         d="m -436.7566,226.85893 c -0.10583,0 -0.1217,-0.12171 -0.1217,-0.19315 v -34.925 a 0.87841666,0.87841666 0 0 1 0.39158,-0.67733 l 30.25246,-17.4625 a 0.28045833,0.28045833 0 0 1 0.13758,-0.0423 c 0.10583,0 0.12171,0.12171 0.12171,0.19314 v 34.925 a 0.88106249,0.88106249 0 0 1 -0.39158,0.67998 l -30.25246,17.4625 a 0.28839583,0.28839583 0 0 1 -0.13759,0.0397 z"
         style="fill:#ffffff;stroke-width:0.26458332"
         id="path930" />
      <path
         inkscape:connector-curvature="0"
         d="m -406.11255,173.68033 a 0.26458333,0.26458333 0 0 1 0,0.0582 v 34.925 a 0.75935416,0.75935416 0 0 1 -0.32544,0.56621 l -30.25246,17.4625 -0.0529,0.0238 a 0.16139583,0.16139583 0 0 1 0,-0.0582 v -34.925 a 0.75935416,0.75935416 0 0 1 0.32544,-0.56357 l 30.25246,-17.4625 a 0.14816666,0.14816666 0 0 1 0.0556,-0.0238 m 0.0159,-0.26458 a 0.41274999,0.41274999 0 0 0 -0.20373,0.0608 l -30.25246,17.4625 a 1.0186458,1.0186458 0 0 0 -0.45773,0.79375 v 34.925 c 0,0.20638 0.10319,0.32544 0.26458,0.32544 a 0.40745833,0.40745833 0 0 0 0.20373,-0.0609 l 30.25246,-17.46249 a 1.0080625,1.0080625 0 0 0 0.45773,-0.79375 v -34.925 c 0,-0.20638 -0.10319,-0.32809 -0.26458,-0.32544 z"
         style="fill:#d6d5f4;stroke-width:0.26458332"
         id="path932" />
      <path
         inkscape:connector-curvature="0"
         d="m -406.11255,173.68033 a 0.26458333,0.26458333 0 0 1 0,0.0582 v 34.925 a 0.75935416,0.75935416 0 0 1 -0.32544,0.56621 l -30.25246,17.4625 -0.0529,0.0238 a 0.16139583,0.16139583 0 0 1 0,-0.0582 v -34.925 a 0.75935416,0.75935416 0 0 1 0.32544,-0.56357 l 30.25246,-17.4625 a 0.14816666,0.14816666 0 0 1 0.0556,-0.0238 m 0.0159,-0.26458 a 0.41274999,0.41274999 0 0 0 -0.20373,0.0608 l -30.25246,17.4625 a 1.0186458,1.0186458 0 0 0 -0.45773,0.79375 v 34.925 c 0,0.20638 0.10319,0.32544 0.26458,0.32544 a 0.40745833,0.40745833 0 0 0 0.20373,-0.0609 l 30.25246,-17.46249 a 1.0080625,1.0080625 0 0 0 0.45773,-0.79375 v -34.925 c 0,-0.20638 -0.10319,-0.32809 -0.26458,-0.32544 z"
         style="opacity:0.7;fill:#ffffff;stroke-width:0.26458332"
         id="path934" />
      <polygon
         transform="matrix(0.26458333,0,0,0.26458333,-499.47872,156.08818)"
         points="288.91,163.21 248.29,186.66 248.29,139.76 288.91,116.31 "
         style="fill:#d6d5f4"
         id="polygon936" />
      <polygon
         transform="matrix(0.26458333,0,0,0.26458333,-499.47872,156.08818)"
         points="288.91,163.21 248.29,186.66 248.29,139.76 288.91,116.31 "
         style="opacity:0.8;fill:#ffffff"
         id="polygon938" />
      <path
         inkscape:connector-curvature="0"
         d="m -424.64926,189.95485 v 3.73062 l -0.33867,0.18786 v -1.14036 c 0,-0.62971 -0.51065,-0.84402 -1.14565,-0.47889 l -4.55347,2.6326 c -0.63236,0.36512 -1.14565,1.1721 -1.14565,1.80181 v 1.14036 l -0.33602,0.20108 v -3.72269 z"
         style="fill:#ffffff;stroke-width:0.26458332"
         id="path940" />
      <path
         inkscape:connector-curvature="0"
         d="m -426.7183,199.45339 c -0.55034,0.3175 -0.99748,-0.0159 -0.99748,-0.74877 v -5.97165 l -1.38377,0.75142 v 6.01927 c 0,0.73025 -0.44715,1.5875 -0.99748,1.89706 l -1.00013,0.57679 v 0.39688 l 5.37369,-3.10356 v -0.39423 z"
         style="fill:#ffffff;stroke-width:0.26458332"
         id="path942" />
      <path
         inkscape:connector-curvature="0"
         d="m -420.89747,186.25068 c 0,0.34396 0.30956,0.44185 0.68792,0.2249 l 10.45633,-6.04573 a 1.381125,1.381125 0 0 0 0.68792,-1.01865 c 0,-0.34131 -0.30957,-0.44185 -0.68792,-0.22225 l -10.4484,6.0325 a 1.3758333,1.3758333 0 0 0 -0.69585,1.02923 z"
         style="fill:#d6d5f4;stroke-width:0.26458332"
         id="path944" />
      <path
         inkscape:connector-curvature="0"
         d="m -420.89747,189.95485 c 0,0.34395 0.30956,0.4445 0.68792,0.22489 l 10.44839,-6.0325 a 1.381125,1.381125 0 0 0 0.68792,-1.01864 c 0,-0.34132 -0.30956,-0.44186 -0.68792,-0.22225 l -10.44839,6.0325 a 1.381125,1.381125 0 0 0 -0.68792,1.016 z"
         style="fill:#d6d5f4;stroke-width:0.26458332"
         id="path946" />
      <path
         inkscape:connector-curvature="0"
         d="m -420.89747,193.68547 c 0,0.34396 0.30956,0.4445 0.68792,0.2249 l 10.44839,-6.0325 a 1.381125,1.381125 0 0 0 0.68792,-1.016 c 0,-0.34396 -0.30956,-0.4445 -0.68792,-0.2249 l -10.44839,6.0325 a 1.381125,1.381125 0 0 0 -0.68792,1.016 z"
         style="fill:#d6d5f4;stroke-width:0.26458332"
         id="path948" />
      <path
         inkscape:connector-curvature="0"
         d="m -420.89747,197.40816 c 0,0.34396 0.30956,0.4445 0.68792,0.22489 l 10.44839,-6.0325 a 1.381125,1.381125 0 0 0 0.68792,-1.016 c 0,-0.34395 -0.30956,-0.4445 -0.68792,-0.22489 l -10.44839,6.0325 a 1.381125,1.381125 0 0 0 -0.68792,1.016 z"
         style="fill:#d6d5f4;stroke-width:0.26458332"
         id="path950" />
      <path
         inkscape:connector-curvature="0"
         d="m -433.78532,208.57887 c 0,0.34396 0.30691,0.4445 0.68791,0.22489 l 23.34419,-13.49375 a 1.3758333,1.3758333 0 0 0 0.68792,-1.016 c 0,-0.34396 -0.30957,-0.44185 -0.68792,-0.22489 l -23.34419,13.49375 a 1.3731875,1.3731875 0 0 0 -0.68791,1.016 z"
         style="fill:#d6d5f4;stroke-width:0.26458332"
         id="path952" />
      <path
         inkscape:connector-curvature="0"
         d="m -433.78532,212.30155 c 0,0.34396 0.30691,0.4445 0.68791,0.2249 l 23.34419,-13.47787 a 1.381125,1.381125 0 0 0 0.68792,-1.01865 c 0,-0.34131 -0.30957,-0.44185 -0.68792,-0.22225 l -23.34419,13.47787 a 1.3731875,1.3731875 0 0 0 -0.68791,1.016 z"
         style="fill:#d6d5f4;stroke-width:0.26458332"
         id="path954" />
      <path
         inkscape:connector-curvature="0"
         d="m -433.78532,216.02689 c 0,0.34131 0.30691,0.44185 0.68791,0.22225 l 23.34419,-13.47788 a 1.381125,1.381125 0 0 0 0.68792,-1.01864 c 0,-0.34132 -0.30957,-0.44186 -0.68792,-0.22225 l -23.34419,13.47787 a 1.3731875,1.3731875 0 0 0 -0.68791,1.01865 z"
         style="fill:#d6d5f4;stroke-width:0.26458332"
         id="path956" />
      <polygon
         transform="matrix(0.26458333,0,0,0.26458333,-499.47872,156.08818)"
         points="378.27,160.74 349.84,285.04 191.42,376.5 219.85,252.21 "
         style="fill:#d6d5f4"
         id="polygon958" />
      <polygon
         transform="matrix(0.26458333,0,0,0.26458333,-499.47872,156.08818)"
         points="266.74,333.02 266.74,240.84 230.18,261.94 230.18,354.13 "
         style="fill:#d6d5f4"
         id="polygon960" />
      <polygon
         transform="matrix(0.26458333,0,0,0.26458333,-499.47872,156.08818)"
         points="266.74,333.02 266.74,240.84 230.18,261.94 230.18,354.13 "
         style="opacity:0.2"
         id="polygon962" />
      <path
         inkscape:connector-curvature="0"
         d="m -420.87895,264.23397 c -0.82285,-0.61383 -8.75506,-6.67544 -12.78731,-15.34583 -4.29154,-9.21809 -4.28625,-19.97075 -4.28625,-24.01623 v -0.127 l 28.75491,-16.59996 c 0,4.08252 0,14.85106 4.31007,24.1009 3.93964,8.46666 11.56758,14.45154 12.77673,15.367 z"
         style="fill:#ffffff;stroke-width:0.26458332"
         id="path964" />
      <path
         inkscape:connector-curvature="0"
         d="m -409.32989,208.38308 c 0,4.2545 0.082,14.81666 4.32329,23.92891 3.80736,8.17563 11.04636,14.05467 12.65767,15.29556 l -28.52208,16.46767 c -1.1139,-0.83873 -8.74713,-6.79979 -12.67354,-15.23206 -4.28625,-9.19163 -4.28625,-19.92313 -4.28625,-23.96331 v -0.0503 l 28.49033,-16.44914 m 0.26458,-0.45773 -29.0195,16.75606 c 0,3.80736 -0.0794,14.86959 4.29948,24.27552 4.31006,9.23132 12.89844,15.43844 12.89844,15.43844 l 29.02744,-16.75871 c 0,0 -8.59896,-6.20712 -12.8958,-15.43844 -4.3815,-9.40593 -4.29947,-20.46816 -4.29947,-24.27552 z"
         style="fill:#d6d5f4;stroke-width:0.26458332"
         id="path966" />
      <path
         inkscape:connector-curvature="0"
         d="m -409.32989,208.38308 c 0,4.2545 0.082,14.81666 4.32329,23.92891 3.80736,8.17563 11.04636,14.05467 12.65767,15.29556 l -28.52208,16.46767 c -1.1139,-0.83873 -8.74713,-6.79979 -12.67354,-15.23206 -4.28625,-9.19163 -4.28625,-19.92313 -4.28625,-23.96331 v -0.0503 l 28.49033,-16.44914 m 0.26458,-0.45773 -29.0195,16.75606 c 0,3.80736 -0.0794,14.86959 4.29948,24.27552 4.31006,9.23132 12.89844,15.43844 12.89844,15.43844 l 29.02744,-16.75871 c 0,0 -8.59896,-6.20712 -12.8958,-15.43844 -4.3815,-9.40593 -4.29947,-20.46816 -4.29947,-24.27552 z"
         style="opacity:0.7;fill:#ffffff;stroke-width:0.26458332"
         id="path968" />
      <path
         inkscape:connector-curvature="0"
         d="m -412.34878,213.54245 -9.17575,5.29167 a 1.30175,1.30175 0 0 0 -0.66675,1.00277 c 0.0132,0.33602 0.33337,0.43127 0.71173,0.21166 l 9.17839,-5.29166 a 1.30175,1.30175 0 0 0 0.66411,-0.98954 c -0.0159,-0.34925 -0.33073,-0.4445 -0.71173,-0.2249 z"
         style="fill:#d6d5f4;stroke-width:0.26458332"
         id="path970" />
      <path
         inkscape:connector-curvature="0"
         d="m -412.15299,217.15401 -9.17575,5.29167 a 1.222375,1.222375 0 0 0 -0.64029,0.98954 c 0.0291,0.32544 0.36248,0.41275 0.74083,0.19315 l 9.1784,-5.29167 a 1.2065,1.2065 0 0 0 0.63235,-0.9869 c -0.0265,-0.32808 -0.35454,-0.40745 -0.73554,-0.19579 z"
         style="fill:#d6d5f4;stroke-width:0.26458332"
         id="path972" />
      <path
         inkscape:connector-curvature="0"
         d="m -411.78522,220.66503 -9.1784,5.29167 c -0.37835,0.2196 -0.65352,0.65617 -0.60854,0.97102 0.045,0.31485 0.39158,0.39688 0.77258,0.17727 l 9.1784,-5.29166 c 0.37835,-0.21961 0.64823,-0.65353 0.6006,-0.96838 -0.0476,-0.31485 -0.38629,-0.39952 -0.76464,-0.17992 z"
         style="fill:#d6d5f4;stroke-width:0.26458332"
         id="path974" />
      <path
         inkscape:connector-curvature="0"
         d="m -411.23489,224.07022 -9.17839,5.29167 c -0.37836,0.2196 -0.6403,0.64823 -0.5768,0.95514 0.0635,0.30692 0.42334,0.37571 0.79375,0.15611 l 9.17575,-5.29167 c 0.381,-0.2196 0.635,-0.64558 0.5715,-0.9525 -0.0635,-0.30692 -0.39422,-0.37835 -0.78581,-0.15875 z"
         style="fill:#d6d5f4;stroke-width:0.26458332"
         id="path976" />
      <path
         inkscape:connector-curvature="0"
         d="m -410.48876,227.36164 -9.1784,5.29166 c -0.37835,0.21961 -0.62442,0.63765 -0.52917,0.93134 0.0952,0.29368 0.45773,0.35983 0.83609,0.14023 l 9.17839,-5.29167 c 0.381,-0.2196 0.61913,-0.635 0.52917,-0.93133 -0.09,-0.29634 -0.45773,-0.35984 -0.83608,-0.14023 z"
         style="fill:#d6d5f4;stroke-width:0.26458332"
         id="path978" />
      <path
         inkscape:connector-curvature="0"
         d="m -409.52039,230.53399 -22.36787,12.91431 c -0.37836,0.21961 -0.60854,0.62707 -0.50536,0.91017 0.10319,0.2831 0.49742,0.33602 0.87577,0.11642 l 22.36788,-12.91432 c 0.381,-0.2196 0.6006,-0.62441 0.49742,-0.91016 -0.10319,-0.28575 -0.50271,-0.33602 -0.86784,-0.11642 z"
         style="fill:#d6d5f4;stroke-width:0.26458332"
         id="path980" />
      <path
         inkscape:connector-curvature="0"
         d="m -408.34299,233.56347 -22.36523,12.91431 c -0.381,0.21961 -0.59002,0.61648 -0.46302,0.88636 0.127,0.26987 0.52916,0.31221 0.91546,0.0926 l 22.36787,-12.91431 c 0.381,-0.21961 0.58473,-0.61648 0.45773,-0.88636 -0.127,-0.26987 -0.53181,-0.30956 -0.91281,-0.0926 z"
         style="fill:#d6d5f4;stroke-width:0.26458332"
         id="path982" />
      <path
         inkscape:connector-curvature="0"
         d="m -406.87455,236.45007 -22.36788,12.91432 c -0.381,0.2196 -0.56885,0.60589 -0.41804,0.86254 0.15081,0.25664 0.58208,0.2831 0.96308,0.0635 l 22.352,-12.91431 c 0.37836,-0.21696 0.56092,-0.60061 0.41011,-0.85725 -0.15082,-0.25665 -0.56886,-0.2884 -0.93927,-0.0688 z"
         style="fill:#d6d5f4;stroke-width:0.26458332"
         id="path984" />
      <path
         inkscape:connector-curvature="0"
         d="m -405.1627,239.18057 -22.36523,12.91167 c -0.381,0.21961 -0.55033,0.59796 -0.37835,0.83873 0.17198,0.24077 0.62441,0.26458 1.00541,0.0423 l 22.36523,-12.91431 c 0.381,-0.2196 0.54504,-0.59267 0.37306,-0.83608 -0.17197,-0.24342 -0.61912,-0.26194 -1.00012,-0.0423 z"
         style="fill:#d6d5f4;stroke-width:0.26458332"
         id="path986" />
      <path
         inkscape:connector-curvature="0"
         d="m -403.21008,241.77614 -22.36787,12.91166 c -0.37835,0.21961 -0.52917,0.58738 -0.33867,0.81757 0.1905,0.23018 0.65882,0.24077 1.03982,0.0212 l 22.36787,-12.9196 c 0.37835,-0.21961 0.52917,-0.58208 0.33338,-0.81227 -0.1958,-0.23019 -0.65353,-0.24606 -1.03453,-0.0185 z"
         style="fill:#d6d5f4;stroke-width:0.26458332"
         id="path988" />
      <path
         inkscape:connector-curvature="0"
         d="m -401.05372,244.24735 -22.35994,12.91166 c -0.381,0.21961 -0.52917,0.57944 -0.30692,0.79375 0.22225,0.21431 0.69321,0.21961 1.07157,0 l 22.36787,-12.91431 c 0.381,-0.2196 0.51329,-0.57415 0.30163,-0.79375 -0.21167,-0.2196 -0.68792,-0.21431 -1.07421,0.003 z"
         style="fill:#d6d5f4;stroke-width:0.26458332"
         id="path990" />
      <path
         inkscape:connector-curvature="0"
         d="m -398.67247,246.61007 -22.36788,12.91167 c -0.37835,0.21961 -0.5027,0.5715 -0.26458,0.78052 0.23813,0.20902 0.72496,0.20109 1.10596,-0.0185 l 22.34935,-12.91431 c 0.37836,-0.21961 0.49742,-0.56356 0.26459,-0.77523 -0.23284,-0.21167 -0.71702,-0.20373 -1.08744,0.0159 z"
         style="fill:#d6d5f4;stroke-width:0.26458332"
         id="path992" />
      <path
         inkscape:connector-curvature="0"
         d="m -424.85035,220.76293 -10.55158,6.08542 c 0.11642,3.82322 0.55298,9.33714 2.15106,14.89075 l 10.55423,-6.08542 c -1.60073,-5.55361 -2.03729,-11.07017 -2.15371,-14.89075 z"
         style="fill:#d6d5f4;stroke-width:0.26458332"
         id="path994" />
      <path
         inkscape:connector-curvature="0"
         d="m -424.85035,220.76293 -10.55158,6.08542 c 0.11642,3.82322 0.55298,9.33714 2.15106,14.89075 l 10.55423,-6.08542 c -1.60073,-5.55361 -2.03729,-11.07017 -2.15371,-14.89075 z"
         style="opacity:0.8;fill:#ffffff;stroke-width:0.26458332"
         id="path996" />
    </g>
  </g>
</svg>
